<?xml version="1.0" encoding="UTF-8" standalone="no"?>
<!-- Created with Inkscape (http://www.inkscape.org/) -->

<svg
   width="1040"
   height="300"
   viewBox="0 0 275.16666 79.375"
   version="1.1"
   id="svg2812"
   xmlns="http://www.w3.org/2000/svg"
   xmlns:svg="http://www.w3.org/2000/svg">
  <defs
     id="defs2809" />
  <g
     id="layer1">
    <g
       id="g1048"
       transform="translate(-113.88034,-43.688148)">
      <path
         id="path1243-0-2"
         style="clip-rule:evenodd;display:inline;fill:#000000;fill-rule:nonzero;stroke-width:0.238124;stroke-linecap:round;stroke-linejoin:round"
         d="m 161.93606,51.559144 c -0.90077,0.0053 -1.82032,0.03446 -2.71611,0.09302 -20.91241,2.031073 -26.55056,17.673943 -29.51707,29.756323 -3.94842,16.287262 -0.62935,15.939912 -3.15432,22.963973 -1.17677,3.27357 -6.57141,5.98151 -9.19583,9.76374 -4.50991,6.49959 4.04523,-1.46521 12.19564,-4.78575 4.1682,-1.69816 4.92499,7.2917 10.03453,11.1156 3.72293,2.78616 -2.69865,-8.81657 -0.0961,-10.47843 4.74117,-3.02748 11.53896,2.60962 17.69556,3.68556 10.84937,1.89606 16.06146,-1.20974 19.94504,-2.86959 3.88358,-1.65984 3.75885,-3.90284 2.60656,-3.25458 -4.0047,2.25297 -11.39584,3.34553 -15.99076,3.34553 -15.98631,0 -28.94603,-12.959721 -28.94603,-28.946034 0,-6.796284 2.34521,-12.942285 6.26783,-17.807182 4.34182,-0.526239 8.56455,-0.309104 12.68915,0.73794 2.53524,0.643577 4.68195,2.696626 6.96392,3.616833 1.00366,0.459744 0.60624,-0.762807 0.15968,-1.1498 -1.26341,-1.97077 -3.36016,-3.184428 -5.48701,-4.027145 -3.56556,-1.381191 -7.34232,-2.116722 -11.13627,-2.545064 5.14486,-4.630741 11.98517,-7.505463 19.48873,-7.771102 9.89751,-0.350388 4.49829,-1.480643 -1.80712,-1.443839 z" />
      <g
         id="g8526-5-919-8"
         style="display:inline"
         transform="matrix(0.225,0,0,0.225,133.66182,32.240882)">
        <path
           style="clip-rule:evenodd;fill:#800000;fill-rule:nonzero;stroke-width:0.264583;stroke-linecap:round;stroke-linejoin:round"
           d="m 172.34202,80.850842 c 0,0 -11.95845,-19.821848 -19.96141,-4.51512 -8.00295,15.306722 12.57631,7.208258 15.47367,16.955005 0,0 -23.25493,-7.739258 -24.00682,12.468613 -0.75188,20.20786 24.72693,-2.01819 24.72693,-2.01819 0,0 -13.63672,21.02552 6.42979,18.59135 20.0665,-2.43418 10.47622,-15.11816 7.75491,-18.42002 0,0 23.2912,17.87462 22.62662,-4.180562 0,0 2.0236,-15.135632 -17.54265,-9.447583 0,0 28.65236,-13.449255 4.22325,-23.826353 -24.42909,-10.377098 -18.71288,5.105913 -19.72429,14.392857 z"
           id="path399-9-9-0-0-3" />
        <path
           id="rect2539-0-6-9-2-3-0-4-45-9"
           style="clip-rule:evenodd;fill:#ffffff;fill-rule:nonzero;stroke-width:0.241102;stroke-linecap:round;stroke-linejoin:round"
           d="m 176.46937,102.2694 a 0.9656351,0.9656351 0 0 0 1.11897,-0.78351 0.9656351,0.9656351 0 0 0 -0.6089,-1.0679 l 0.83008,-4.707593 a 2.7003375,2.7003375 0 0 0 1.00449,-0.08874 l 1.64671,4.523843 a 0.9656351,0.9656351 0 0 0 -0.41413,1.15759 0.9656351,0.9656351 0 0 0 1.23788,0.57708 0.9656351,0.9656351 0 0 0 0.57745,-1.2378 0.9656351,0.9656351 0 0 0 -1.06151,-0.62059 l -1.64561,-4.521355 a 2.7003375,2.7003375 0 0 0 0.89052,-0.629082 l 3.65581,3.067963 a 0.9656351,0.9656351 0 0 0 0.22016,1.209371 0.9656351,0.9656351 0 0 0 1.3606,-0.118909 0.9656351,0.9656351 0 0 0 -0.11884,-1.360964 0.9656351,0.9656351 0 0 0 -1.22942,-0.0068 l -3.66091,-3.071543 a 2.7003375,2.7003375 0 0 0 0.42275,-0.948348 l 4.6705,0.823531 a 0.9656351,0.9656351 0 0 0 0.79524,0.937421 0.9656351,0.9656351 0 0 0 1.11897,-0.783508 0.9656351,0.9656351 0 0 0 -0.78357,-1.118597 0.9656351,0.9656351 0 0 0 -1.06784,0.608528 l -4.67532,-0.824383 a 2.7003375,2.7003375 0 0 0 -0.0917,-1.005022 l 4.55405,-1.657448 a 0.9656351,0.9656351 0 0 0 1.15759,0.414125 0.9656351,0.9656351 0 0 0 0.57715,-1.238244 0.9656351,0.9656351 0 0 0 -1.23787,-0.577086 0.9656351,0.9656351 0 0 0 -0.62052,1.061133 l -4.55287,1.657276 a 2.7003375,2.7003375 0 0 0 -0.66045,-0.914416 l 3.10969,-3.705825 a 0.9656351,0.9656351 0 0 0 1.20937,-0.220166 0.9656351,0.9656351 0 0 0 -0.11891,-1.360596 0.9656351,0.9656351 0 0 0 -1.36059,0.118904 0.9656351,0.9656351 0 0 0 -0.007,1.229416 l -3.11607,3.713871 a 2.7003375,2.7003375 0 0 0 -0.85331,-0.380365 l 0.83007,-4.707593 a 0.9656351,0.9656351 0 0 0 0.93742,-0.795245 0.9656351,0.9656351 0 0 0 -0.7835,-1.118968 0.9656351,0.9656351 0 0 0 -1.11897,0.783511 0.9656351,0.9656351 0 0 0 0.60889,1.067903 l -0.82942,4.703881 a 2.7003375,2.7003375 0 0 0 -1.03963,0.07757 l -1.64054,-4.506685 a 0.9656351,0.9656351 0 0 0 0.41413,-1.157587 0.9656351,0.9656351 0 0 0 -1.23782,-0.577456 0.9656351,0.9656351 0 0 0 -0.57752,1.238176 0.9656351,0.9656351 0 0 0 1.06151,0.620583 l 1.63874,4.501788 a 2.7003375,2.7003375 0 0 0 -0.9142,0.644035 l -3.66995,-3.078874 a 0.9656351,0.9656351 0 0 0 -0.2201,-1.209741 0.9656351,0.9656351 0 0 0 -1.36066,0.119274 0.9656351,0.9656351 0 0 0 0.11891,1.360601 0.9656351,0.9656351 0 0 0 1.22941,0.0068 l 3.67584,3.084499 a 2.7003375,2.7003375 0 0 0 -0.39959,0.875548 l -4.67568,-0.824452 a 0.9656351,0.9656351 0 0 0 -0.79531,-0.937051 0.9656351,0.9656351 0 0 0 -1.11891,0.783138 0.9656351,0.9656351 0 0 0 0.78351,1.11897 0.9656351,0.9656351 0 0 0 1.06791,-0.608899 l 4.66456,0.822487 a 2.7003375,2.7003375 0 0 0 0.0809,1.050933 l -4.51242,1.642604 a 0.9656351,0.9656351 0 0 0 -1.15758,-0.414125 0.9656351,0.9656351 0 0 0 -0.57709,1.237874 0.9656351,0.9656351 0 0 0 1.23781,0.577458 0.9656351,0.9656351 0 0 0 0.62058,-1.061508 l 4.50949,-1.641208 a 2.7003375,2.7003375 0 0 0 0.54857,0.817803 l -3.06947,3.657836 a 0.9656351,0.9656351 0 0 0 -1.20937,0.220162 0.9656351,0.9656351 0 0 0 0.11891,1.360596 0.9656351,0.9656351 0 0 0 1.3606,-0.1189 0.9656351,0.9656351 0 0 0 0.007,-1.229419 l 3.0617,-3.648493 a 2.7003375,2.7003375 0 0 0 1.04091,0.498745 l -0.82838,4.697957 a 0.9656351,0.9656351 0 0 0 -0.93742,0.79524 0.9656351,0.9656351 0 0 0 0.78351,1.11897 z" />
      </g>
      <g
         id="g8526-5-9-8-0"
         style="display:inline"
         transform="matrix(0.16875,0,0,0.16875,132.84751,56.587405)">
        <path
           style="clip-rule:evenodd;fill:#800000;fill-rule:nonzero;stroke-width:0.264583;stroke-linecap:round;stroke-linejoin:round"
           d="m 172.34202,80.850842 c 0,0 -11.95845,-19.821848 -19.96141,-4.51512 -8.00295,15.306722 12.57631,7.208258 15.47367,16.955005 0,0 -23.25493,-7.739258 -24.00682,12.468613 -0.75188,20.20786 24.72693,-2.01819 24.72693,-2.01819 0,0 -13.63672,21.02552 6.42979,18.59135 20.0665,-2.43418 10.47622,-15.11816 7.75491,-18.42002 0,0 23.2912,17.87462 22.62662,-4.180562 0,0 2.0236,-15.135632 -17.54265,-9.447583 0,0 28.65236,-13.449255 4.22325,-23.826353 -24.42909,-10.377098 -18.71288,5.105913 -19.72429,14.392857 z"
           id="path399-9-9-0-1-1-5" />
        <path
           id="rect2539-0-6-9-2-3-0-4-4-7-2"
           style="clip-rule:evenodd;fill:#ffffff;fill-rule:nonzero;stroke-width:0.241102;stroke-linecap:round;stroke-linejoin:round"
           d="m 176.46937,102.2694 a 0.9656351,0.9656351 0 0 0 1.11897,-0.78351 0.9656351,0.9656351 0 0 0 -0.6089,-1.0679 l 0.83008,-4.707593 a 2.7003375,2.7003375 0 0 0 1.00449,-0.08874 l 1.64671,4.523843 a 0.9656351,0.9656351 0 0 0 -0.41413,1.15759 0.9656351,0.9656351 0 0 0 1.23788,0.57708 0.9656351,0.9656351 0 0 0 0.57745,-1.2378 0.9656351,0.9656351 0 0 0 -1.06151,-0.62059 l -1.64561,-4.521355 a 2.7003375,2.7003375 0 0 0 0.89052,-0.629082 l 3.65581,3.067963 a 0.9656351,0.9656351 0 0 0 0.22016,1.209371 0.9656351,0.9656351 0 0 0 1.3606,-0.118909 0.9656351,0.9656351 0 0 0 -0.11884,-1.360964 0.9656351,0.9656351 0 0 0 -1.22942,-0.0068 l -3.66091,-3.071543 a 2.7003375,2.7003375 0 0 0 0.42275,-0.948348 l 4.6705,0.823531 a 0.9656351,0.9656351 0 0 0 0.79524,0.937421 0.9656351,0.9656351 0 0 0 1.11897,-0.783508 0.9656351,0.9656351 0 0 0 -0.78357,-1.118597 0.9656351,0.9656351 0 0 0 -1.06784,0.608528 l -4.67532,-0.824383 a 2.7003375,2.7003375 0 0 0 -0.0917,-1.005022 l 4.55405,-1.657448 a 0.9656351,0.9656351 0 0 0 1.15759,0.414125 0.9656351,0.9656351 0 0 0 0.57715,-1.238244 0.9656351,0.9656351 0 0 0 -1.23787,-0.577086 0.9656351,0.9656351 0 0 0 -0.62052,1.061133 l -4.55287,1.657276 a 2.7003375,2.7003375 0 0 0 -0.66045,-0.914416 l 3.10969,-3.705825 a 0.9656351,0.9656351 0 0 0 1.20937,-0.220166 0.9656351,0.9656351 0 0 0 -0.11891,-1.360596 0.9656351,0.9656351 0 0 0 -1.36059,0.118904 0.9656351,0.9656351 0 0 0 -0.007,1.229416 l -3.11607,3.713871 a 2.7003375,2.7003375 0 0 0 -0.85331,-0.380365 l 0.83007,-4.707593 a 0.9656351,0.9656351 0 0 0 0.93742,-0.795245 0.9656351,0.9656351 0 0 0 -0.7835,-1.118968 0.9656351,0.9656351 0 0 0 -1.11897,0.783511 0.9656351,0.9656351 0 0 0 0.60889,1.067903 l -0.82942,4.703881 a 2.7003375,2.7003375 0 0 0 -1.03963,0.07757 l -1.64054,-4.506685 a 0.9656351,0.9656351 0 0 0 0.41413,-1.157587 0.9656351,0.9656351 0 0 0 -1.23782,-0.577456 0.9656351,0.9656351 0 0 0 -0.57752,1.238176 0.9656351,0.9656351 0 0 0 1.06151,0.620583 l 1.63874,4.501788 a 2.7003375,2.7003375 0 0 0 -0.9142,0.644035 l -3.66995,-3.078874 a 0.9656351,0.9656351 0 0 0 -0.2201,-1.209741 0.9656351,0.9656351 0 0 0 -1.36066,0.119274 0.9656351,0.9656351 0 0 0 0.11891,1.360601 0.9656351,0.9656351 0 0 0 1.22941,0.0068 l 3.67584,3.084499 a 2.7003375,2.7003375 0 0 0 -0.39959,0.875548 l -4.67568,-0.824452 a 0.9656351,0.9656351 0 0 0 -0.79531,-0.937051 0.9656351,0.9656351 0 0 0 -1.11891,0.783138 0.9656351,0.9656351 0 0 0 0.78351,1.11897 0.9656351,0.9656351 0 0 0 1.06791,-0.608899 l 4.66456,0.822487 a 2.7003375,2.7003375 0 0 0 0.0809,1.050933 l -4.51242,1.642604 a 0.9656351,0.9656351 0 0 0 -1.15758,-0.414125 0.9656351,0.9656351 0 0 0 -0.57709,1.237874 0.9656351,0.9656351 0 0 0 1.23781,0.577458 0.9656351,0.9656351 0 0 0 0.62058,-1.061508 l 4.50949,-1.641208 a 2.7003375,2.7003375 0 0 0 0.54857,0.817803 l -3.06947,3.657836 a 0.9656351,0.9656351 0 0 0 -1.20937,0.220162 0.9656351,0.9656351 0 0 0 0.11891,1.360596 0.9656351,0.9656351 0 0 0 1.3606,-0.1189 0.9656351,0.9656351 0 0 0 0.007,-1.229419 l 3.0617,-3.648493 a 2.7003375,2.7003375 0 0 0 1.04091,0.498745 l -0.82838,4.697957 a 0.9656351,0.9656351 0 0 0 -0.93742,0.79524 0.9656351,0.9656351 0 0 0 0.78351,1.11897 z" />
      </g>
      <g
         id="g8526-5-9-0-1-2"
         style="display:inline"
         transform="matrix(0.11470458,-0.05348762,0.05348762,0.11470458,114.74252,53.210894)">
        <path
           style="clip-rule:evenodd;fill:#800000;fill-rule:nonzero;stroke-width:0.264583;stroke-linecap:round;stroke-linejoin:round"
           d="m 172.34202,80.850842 c 0,0 -11.95845,-19.821848 -19.96141,-4.51512 -8.00295,15.306722 12.57631,7.208258 15.47367,16.955005 0,0 -23.25493,-7.739258 -24.00682,12.468613 -0.75188,20.20786 24.72693,-2.01819 24.72693,-2.01819 0,0 -13.63672,21.02552 6.42979,18.59135 20.0665,-2.43418 10.47622,-15.11816 7.75491,-18.42002 0,0 23.2912,17.87462 22.62662,-4.180562 0,0 2.0236,-15.135632 -17.54265,-9.447583 0,0 28.65236,-13.449255 4.22325,-23.826353 -24.42909,-10.377098 -18.71288,5.105913 -19.72429,14.392857 z"
           id="path399-9-9-0-1-4-3-7" />
        <path
           id="rect2539-0-6-9-2-3-0-4-4-3-0-3"
           style="clip-rule:evenodd;fill:#ffffff;fill-rule:nonzero;stroke-width:0.241102;stroke-linecap:round;stroke-linejoin:round"
           d="m 176.46937,102.2694 a 0.9656351,0.9656351 0 0 0 1.11897,-0.78351 0.9656351,0.9656351 0 0 0 -0.6089,-1.0679 l 0.83008,-4.707593 a 2.7003375,2.7003375 0 0 0 1.00449,-0.08874 l 1.64671,4.523843 a 0.9656351,0.9656351 0 0 0 -0.41413,1.15759 0.9656351,0.9656351 0 0 0 1.23788,0.57708 0.9656351,0.9656351 0 0 0 0.57745,-1.2378 0.9656351,0.9656351 0 0 0 -1.06151,-0.62059 l -1.64561,-4.521355 a 2.7003375,2.7003375 0 0 0 0.89052,-0.629082 l 3.65581,3.067963 a 0.9656351,0.9656351 0 0 0 0.22016,1.209371 0.9656351,0.9656351 0 0 0 1.3606,-0.118909 0.9656351,0.9656351 0 0 0 -0.11884,-1.360964 0.9656351,0.9656351 0 0 0 -1.22942,-0.0068 l -3.66091,-3.071543 a 2.7003375,2.7003375 0 0 0 0.42275,-0.948348 l 4.6705,0.823531 a 0.9656351,0.9656351 0 0 0 0.79524,0.937421 0.9656351,0.9656351 0 0 0 1.11897,-0.783508 0.9656351,0.9656351 0 0 0 -0.78357,-1.118597 0.9656351,0.9656351 0 0 0 -1.06784,0.608528 l -4.67532,-0.824383 a 2.7003375,2.7003375 0 0 0 -0.0917,-1.005022 l 4.55405,-1.657448 a 0.9656351,0.9656351 0 0 0 1.15759,0.414125 0.9656351,0.9656351 0 0 0 0.57715,-1.238244 0.9656351,0.9656351 0 0 0 -1.23787,-0.577086 0.9656351,0.9656351 0 0 0 -0.62052,1.061133 l -4.55287,1.657276 a 2.7003375,2.7003375 0 0 0 -0.66045,-0.914416 l 3.10969,-3.705825 a 0.9656351,0.9656351 0 0 0 1.20937,-0.220166 0.9656351,0.9656351 0 0 0 -0.11891,-1.360596 0.9656351,0.9656351 0 0 0 -1.36059,0.118904 0.9656351,0.9656351 0 0 0 -0.007,1.229416 l -3.11607,3.713871 a 2.7003375,2.7003375 0 0 0 -0.85331,-0.380365 l 0.83007,-4.707593 a 0.9656351,0.9656351 0 0 0 0.93742,-0.795245 0.9656351,0.9656351 0 0 0 -0.7835,-1.118968 0.9656351,0.9656351 0 0 0 -1.11897,0.783511 0.9656351,0.9656351 0 0 0 0.60889,1.067903 l -0.82942,4.703881 a 2.7003375,2.7003375 0 0 0 -1.03963,0.07757 l -1.64054,-4.506685 a 0.9656351,0.9656351 0 0 0 0.41413,-1.157587 0.9656351,0.9656351 0 0 0 -1.23782,-0.577456 0.9656351,0.9656351 0 0 0 -0.57752,1.238176 0.9656351,0.9656351 0 0 0 1.06151,0.620583 l 1.63874,4.501788 a 2.7003375,2.7003375 0 0 0 -0.9142,0.644035 l -3.66995,-3.078874 a 0.9656351,0.9656351 0 0 0 -0.2201,-1.209741 0.9656351,0.9656351 0 0 0 -1.36066,0.119274 0.9656351,0.9656351 0 0 0 0.11891,1.360601 0.9656351,0.9656351 0 0 0 1.22941,0.0068 l 3.67584,3.084499 a 2.7003375,2.7003375 0 0 0 -0.39959,0.875548 l -4.67568,-0.824452 a 0.9656351,0.9656351 0 0 0 -0.79531,-0.937051 0.9656351,0.9656351 0 0 0 -1.11891,0.783138 0.9656351,0.9656351 0 0 0 0.78351,1.11897 0.9656351,0.9656351 0 0 0 1.06791,-0.608899 l 4.66456,0.822487 a 2.7003375,2.7003375 0 0 0 0.0809,1.050933 l -4.51242,1.642604 a 0.9656351,0.9656351 0 0 0 -1.15758,-0.414125 0.9656351,0.9656351 0 0 0 -0.57709,1.237874 0.9656351,0.9656351 0 0 0 1.23781,0.577458 0.9656351,0.9656351 0 0 0 0.62058,-1.061508 l 4.50949,-1.641208 a 2.7003375,2.7003375 0 0 0 0.54857,0.817803 l -3.06947,3.657836 a 0.9656351,0.9656351 0 0 0 -1.20937,0.220162 0.9656351,0.9656351 0 0 0 0.11891,1.360596 0.9656351,0.9656351 0 0 0 1.3606,-0.1189 0.9656351,0.9656351 0 0 0 0.007,-1.229419 l 3.0617,-3.648493 a 2.7003375,2.7003375 0 0 0 1.04091,0.498745 l -0.82838,4.697957 a 0.9656351,0.9656351 0 0 0 -0.93742,0.79524 0.9656351,0.9656351 0 0 0 0.78351,1.11897 z" />
      </g>
      <g
         id="g8526-5-9-0-8-8-8-7"
         style="display:inline"
         transform="matrix(0.0610146,0.07271437,-0.07271437,0.0610146,141.5658,48.479948)">
        <path
           style="clip-rule:evenodd;fill:#800000;fill-rule:nonzero;stroke-width:0.264583;stroke-linecap:round;stroke-linejoin:round"
           d="m 172.34202,80.850842 c 0,0 -11.95845,-19.821848 -19.96141,-4.51512 -8.00295,15.306722 12.57631,7.208258 15.47367,16.955005 0,0 -23.25493,-7.739258 -24.00682,12.468613 -0.75188,20.20786 24.72693,-2.01819 24.72693,-2.01819 0,0 -13.63672,21.02552 6.42979,18.59135 20.0665,-2.43418 10.47622,-15.11816 7.75491,-18.42002 0,0 23.2912,17.87462 22.62662,-4.180562 0,0 2.0236,-15.135632 -17.54265,-9.447583 0,0 28.65236,-13.449255 4.22325,-23.826353 -24.42909,-10.377098 -18.71288,5.105913 -19.72429,14.392857 z"
           id="path399-9-9-0-1-4-8-8-5-9" />
        <path
           id="rect2539-0-6-9-2-3-0-4-4-3-5-4-64-0"
           style="clip-rule:evenodd;fill:#ffffff;fill-rule:nonzero;stroke-width:0.241102;stroke-linecap:round;stroke-linejoin:round"
           d="m 176.46937,102.2694 a 0.9656351,0.9656351 0 0 0 1.11897,-0.78351 0.9656351,0.9656351 0 0 0 -0.6089,-1.0679 l 0.83008,-4.707593 a 2.7003375,2.7003375 0 0 0 1.00449,-0.08874 l 1.64671,4.523843 a 0.9656351,0.9656351 0 0 0 -0.41413,1.15759 0.9656351,0.9656351 0 0 0 1.23788,0.57708 0.9656351,0.9656351 0 0 0 0.57745,-1.2378 0.9656351,0.9656351 0 0 0 -1.06151,-0.62059 l -1.64561,-4.521355 a 2.7003375,2.7003375 0 0 0 0.89052,-0.629082 l 3.65581,3.067963 a 0.9656351,0.9656351 0 0 0 0.22016,1.209371 0.9656351,0.9656351 0 0 0 1.3606,-0.118909 0.9656351,0.9656351 0 0 0 -0.11884,-1.360964 0.9656351,0.9656351 0 0 0 -1.22942,-0.0068 l -3.66091,-3.071543 a 2.7003375,2.7003375 0 0 0 0.42275,-0.948348 l 4.6705,0.823531 a 0.9656351,0.9656351 0 0 0 0.79524,0.937421 0.9656351,0.9656351 0 0 0 1.11897,-0.783508 0.9656351,0.9656351 0 0 0 -0.78357,-1.118597 0.9656351,0.9656351 0 0 0 -1.06784,0.608528 l -4.67532,-0.824383 a 2.7003375,2.7003375 0 0 0 -0.0917,-1.005022 l 4.55405,-1.657448 a 0.9656351,0.9656351 0 0 0 1.15759,0.414125 0.9656351,0.9656351 0 0 0 0.57715,-1.238244 0.9656351,0.9656351 0 0 0 -1.23787,-0.577086 0.9656351,0.9656351 0 0 0 -0.62052,1.061133 l -4.55287,1.657276 a 2.7003375,2.7003375 0 0 0 -0.66045,-0.914416 l 3.10969,-3.705825 a 0.9656351,0.9656351 0 0 0 1.20937,-0.220166 0.9656351,0.9656351 0 0 0 -0.11891,-1.360596 0.9656351,0.9656351 0 0 0 -1.36059,0.118904 0.9656351,0.9656351 0 0 0 -0.007,1.229416 l -3.11607,3.713871 a 2.7003375,2.7003375 0 0 0 -0.85331,-0.380365 l 0.83007,-4.707593 a 0.9656351,0.9656351 0 0 0 0.93742,-0.795245 0.9656351,0.9656351 0 0 0 -0.7835,-1.118968 0.9656351,0.9656351 0 0 0 -1.11897,0.783511 0.9656351,0.9656351 0 0 0 0.60889,1.067903 l -0.82942,4.703881 a 2.7003375,2.7003375 0 0 0 -1.03963,0.07757 l -1.64054,-4.506685 a 0.9656351,0.9656351 0 0 0 0.41413,-1.157587 0.9656351,0.9656351 0 0 0 -1.23782,-0.577456 0.9656351,0.9656351 0 0 0 -0.57752,1.238176 0.9656351,0.9656351 0 0 0 1.06151,0.620583 l 1.63874,4.501788 a 2.7003375,2.7003375 0 0 0 -0.9142,0.644035 l -3.66995,-3.078874 a 0.9656351,0.9656351 0 0 0 -0.2201,-1.209741 0.9656351,0.9656351 0 0 0 -1.36066,0.119274 0.9656351,0.9656351 0 0 0 0.11891,1.360601 0.9656351,0.9656351 0 0 0 1.22941,0.0068 l 3.67584,3.084499 a 2.7003375,2.7003375 0 0 0 -0.39959,0.875548 l -4.67568,-0.824452 a 0.9656351,0.9656351 0 0 0 -0.79531,-0.937051 0.9656351,0.9656351 0 0 0 -1.11891,0.783138 0.9656351,0.9656351 0 0 0 0.78351,1.11897 0.9656351,0.9656351 0 0 0 1.06791,-0.608899 l 4.66456,0.822487 a 2.7003375,2.7003375 0 0 0 0.0809,1.050933 l -4.51242,1.642604 a 0.9656351,0.9656351 0 0 0 -1.15758,-0.414125 0.9656351,0.9656351 0 0 0 -0.57709,1.237874 0.9656351,0.9656351 0 0 0 1.23781,0.577458 0.9656351,0.9656351 0 0 0 0.62058,-1.061508 l 4.50949,-1.641208 a 2.7003375,2.7003375 0 0 0 0.54857,0.817803 l -3.06947,3.657836 a 0.9656351,0.9656351 0 0 0 -1.20937,0.220162 0.9656351,0.9656351 0 0 0 0.11891,1.360596 0.9656351,0.9656351 0 0 0 1.3606,-0.1189 0.9656351,0.9656351 0 0 0 0.007,-1.229419 l 3.0617,-3.648493 a 2.7003375,2.7003375 0 0 0 1.04091,0.498745 l -0.82838,4.697957 a 0.9656351,0.9656351 0 0 0 -0.93742,0.79524 0.9656351,0.9656351 0 0 0 0.78351,1.11897 z" />
      </g>
      <g
         id="g8526-5-9-0-8-8-5-3-2"
         style="display:inline"
         transform="matrix(0.08602843,0.04011571,-0.04011571,0.08602844,151.14029,41.306102)">
        <path
           style="clip-rule:evenodd;fill:#800000;fill-rule:nonzero;stroke-width:0.264583;stroke-linecap:round;stroke-linejoin:round"
           d="m 172.34202,80.850842 c 0,0 -11.95845,-19.821848 -19.96141,-4.51512 -8.00295,15.306722 12.57631,7.208258 15.47367,16.955005 0,0 -23.25493,-7.739258 -24.00682,12.468613 -0.75188,20.20786 24.72693,-2.01819 24.72693,-2.01819 0,0 -13.63672,21.02552 6.42979,18.59135 20.0665,-2.43418 10.47622,-15.11816 7.75491,-18.42002 0,0 23.2912,17.87462 22.62662,-4.180562 0,0 2.0236,-15.135632 -17.54265,-9.447583 0,0 28.65236,-13.449255 4.22325,-23.826353 -24.42909,-10.377098 -18.71288,5.105913 -19.72429,14.392857 z"
           id="path399-9-9-0-1-4-8-8-9-4-3" />
        <path
           id="rect2539-0-6-9-2-3-0-4-4-3-5-4-6-7-9"
           style="clip-rule:evenodd;fill:#ffffff;fill-rule:nonzero;stroke-width:0.241102;stroke-linecap:round;stroke-linejoin:round"
           d="m 176.46937,102.2694 a 0.9656351,0.9656351 0 0 0 1.11897,-0.78351 0.9656351,0.9656351 0 0 0 -0.6089,-1.0679 l 0.83008,-4.707593 a 2.7003375,2.7003375 0 0 0 1.00449,-0.08874 l 1.64671,4.523843 a 0.9656351,0.9656351 0 0 0 -0.41413,1.15759 0.9656351,0.9656351 0 0 0 1.23788,0.57708 0.9656351,0.9656351 0 0 0 0.57745,-1.2378 0.9656351,0.9656351 0 0 0 -1.06151,-0.62059 l -1.64561,-4.521355 a 2.7003375,2.7003375 0 0 0 0.89052,-0.629082 l 3.65581,3.067963 a 0.9656351,0.9656351 0 0 0 0.22016,1.209371 0.9656351,0.9656351 0 0 0 1.3606,-0.118909 0.9656351,0.9656351 0 0 0 -0.11884,-1.360964 0.9656351,0.9656351 0 0 0 -1.22942,-0.0068 l -3.66091,-3.071543 a 2.7003375,2.7003375 0 0 0 0.42275,-0.948348 l 4.6705,0.823531 a 0.9656351,0.9656351 0 0 0 0.79524,0.937421 0.9656351,0.9656351 0 0 0 1.11897,-0.783508 0.9656351,0.9656351 0 0 0 -0.78357,-1.118597 0.9656351,0.9656351 0 0 0 -1.06784,0.608528 l -4.67532,-0.824383 a 2.7003375,2.7003375 0 0 0 -0.0917,-1.005022 l 4.55405,-1.657448 a 0.9656351,0.9656351 0 0 0 1.15759,0.414125 0.9656351,0.9656351 0 0 0 0.57715,-1.238244 0.9656351,0.9656351 0 0 0 -1.23787,-0.577086 0.9656351,0.9656351 0 0 0 -0.62052,1.061133 l -4.55287,1.657276 a 2.7003375,2.7003375 0 0 0 -0.66045,-0.914416 l 3.10969,-3.705825 a 0.9656351,0.9656351 0 0 0 1.20937,-0.220166 0.9656351,0.9656351 0 0 0 -0.11891,-1.360596 0.9656351,0.9656351 0 0 0 -1.36059,0.118904 0.9656351,0.9656351 0 0 0 -0.007,1.229416 l -3.11607,3.713871 a 2.7003375,2.7003375 0 0 0 -0.85331,-0.380365 l 0.83007,-4.707593 a 0.9656351,0.9656351 0 0 0 0.93742,-0.795245 0.9656351,0.9656351 0 0 0 -0.7835,-1.118968 0.9656351,0.9656351 0 0 0 -1.11897,0.783511 0.9656351,0.9656351 0 0 0 0.60889,1.067903 l -0.82942,4.703881 a 2.7003375,2.7003375 0 0 0 -1.03963,0.07757 l -1.64054,-4.506685 a 0.9656351,0.9656351 0 0 0 0.41413,-1.157587 0.9656351,0.9656351 0 0 0 -1.23782,-0.577456 0.9656351,0.9656351 0 0 0 -0.57752,1.238176 0.9656351,0.9656351 0 0 0 1.06151,0.620583 l 1.63874,4.501788 a 2.7003375,2.7003375 0 0 0 -0.9142,0.644035 l -3.66995,-3.078874 a 0.9656351,0.9656351 0 0 0 -0.2201,-1.209741 0.9656351,0.9656351 0 0 0 -1.36066,0.119274 0.9656351,0.9656351 0 0 0 0.11891,1.360601 0.9656351,0.9656351 0 0 0 1.22941,0.0068 l 3.67584,3.084499 a 2.7003375,2.7003375 0 0 0 -0.39959,0.875548 l -4.67568,-0.824452 a 0.9656351,0.9656351 0 0 0 -0.79531,-0.937051 0.9656351,0.9656351 0 0 0 -1.11891,0.783138 0.9656351,0.9656351 0 0 0 0.78351,1.11897 0.9656351,0.9656351 0 0 0 1.06791,-0.608899 l 4.66456,0.822487 a 2.7003375,2.7003375 0 0 0 0.0809,1.050933 l -4.51242,1.642604 a 0.9656351,0.9656351 0 0 0 -1.15758,-0.414125 0.9656351,0.9656351 0 0 0 -0.57709,1.237874 0.9656351,0.9656351 0 0 0 1.23781,0.577458 0.9656351,0.9656351 0 0 0 0.62058,-1.061508 l 4.50949,-1.641208 a 2.7003375,2.7003375 0 0 0 0.54857,0.817803 l -3.06947,3.657836 a 0.9656351,0.9656351 0 0 0 -1.20937,0.220162 0.9656351,0.9656351 0 0 0 0.11891,1.360596 0.9656351,0.9656351 0 0 0 1.3606,-0.1189 0.9656351,0.9656351 0 0 0 0.007,-1.229419 l 3.0617,-3.648493 a 2.7003375,2.7003375 0 0 0 1.04091,0.498745 l -0.82838,4.697957 a 0.9656351,0.9656351 0 0 0 -0.93742,0.79524 0.9656351,0.9656351 0 0 0 0.78351,1.11897 z" />
      </g>
      <g
         id="g9352-3-5-9"
         transform="matrix(0.45,0,0,0.45,137.51344,-9.6713088)"
         style="display:inline">
        <circle
           style="fill:#800000;fill-opacity:1;stroke-width:0.264583"
           id="path8886-4-9-7"
           cx="97.77758"
           cy="126.68316"
           r="3.0675316" />
        <circle
           style="fill:#ffffff;fill-opacity:1;stroke-width:0.198437"
           id="path8886-1-4-36-0"
           cx="97.77758"
           cy="126.68316"
           r="2.3006487" />
      </g>
      <g
         id="g9352-3-6-5-3"
         transform="matrix(0.45,0,0,0.45,112.73492,11.653329)"
         style="display:inline">
        <circle
           style="fill:#800000;fill-opacity:1;stroke-width:0.264583"
           id="path8886-4-2-1-9"
           cx="97.77758"
           cy="126.68316"
           r="3.0675316" />
        <circle
           style="fill:#ffffff;fill-opacity:1;stroke-width:0.198437"
           id="path8886-1-4-7-8-8"
           cx="97.77758"
           cy="126.68316"
           r="2.3006487" />
      </g>
      <g
         id="g9352-3-6-5-3-3"
         transform="matrix(0.45,0,0,0.45,92.836164,3.5992807)"
         style="display:inline">
        <circle
           style="fill:#800000;fill-opacity:1;stroke-width:0.264583"
           id="path8886-4-2-1-9-7"
           cx="97.77758"
           cy="126.68316"
           r="3.0675316" />
        <circle
           style="fill:#ffffff;fill-opacity:1;stroke-width:0.198437"
           id="path8886-1-4-7-8-8-5"
           cx="97.77758"
           cy="126.68316"
           r="2.3006487" />
      </g>
      <g
         id="g9352-3-1-2-6"
         transform="matrix(0.6,0,0,0.6,93.933575,-23.844736)"
         style="display:inline">
        <circle
           style="fill:#800000;fill-opacity:1;stroke-width:0.264583"
           id="path8886-4-1-4-2"
           cx="97.77758"
           cy="126.68316"
           r="3.0675316" />
        <circle
           style="fill:#ffffff;fill-opacity:1;stroke-width:0.198437"
           id="path8886-1-4-4-4-7"
           cx="97.77758"
           cy="126.68316"
           r="2.3006487" />
      </g>
      <g
         id="g9352-3-1-2-6-9"
         transform="matrix(0.6,0,0,0.6,116.3957,-13.358171)"
         style="display:inline">
        <circle
           style="fill:#800000;fill-opacity:1;stroke-width:0.264583"
           id="path8886-4-1-4-2-4"
           cx="97.77758"
           cy="126.68316"
           r="3.0675316" />
        <circle
           style="fill:#ffffff;fill-opacity:1;stroke-width:0.198437"
           id="path8886-1-4-4-4-7-1"
           cx="97.77758"
           cy="126.68316"
           r="2.3006487" />
      </g>
    </g>
    <g
       id="g8526-5-9-8-0-5"
       style="display:inline"
       transform="matrix(0.36995177,0,0,0.36995177,196.93291,19.668569)">
      <path
         style="clip-rule:evenodd;fill:#800000;fill-rule:nonzero;stroke-width:0.264583;stroke-linecap:round;stroke-linejoin:round"
         d="m 172.34202,80.850842 c 0,0 -11.95845,-19.821848 -19.96141,-4.51512 -8.00295,15.306722 12.57631,7.208258 15.47367,16.955005 0,0 -23.25493,-7.739258 -24.00682,12.468613 -0.75188,20.20786 24.72693,-2.01819 24.72693,-2.01819 0,0 -13.63672,21.02552 6.42979,18.59135 20.0665,-2.43418 10.47622,-15.11816 7.75491,-18.42002 0,0 23.2912,17.87462 22.62662,-4.180562 0,0 2.0236,-15.135632 -17.54265,-9.447583 0,0 28.65236,-13.449255 4.22325,-23.826353 -24.42909,-10.377098 -18.71288,5.105913 -19.72429,14.392857 z"
         id="path399-9-9-0-1-1-5-6" />
      <path
         id="rect2539-0-6-9-2-3-0-4-4-7-2-5"
         style="clip-rule:evenodd;fill:#ffffff;fill-rule:nonzero;stroke-width:0.241102;stroke-linecap:round;stroke-linejoin:round"
         d="m 176.46937,102.2694 a 0.9656351,0.9656351 0 0 0 1.11897,-0.78351 0.9656351,0.9656351 0 0 0 -0.6089,-1.0679 l 0.83008,-4.707593 a 2.7003375,2.7003375 0 0 0 1.00449,-0.08874 l 1.64671,4.523843 a 0.9656351,0.9656351 0 0 0 -0.41413,1.15759 0.9656351,0.9656351 0 0 0 1.23788,0.57708 0.9656351,0.9656351 0 0 0 0.57745,-1.2378 0.9656351,0.9656351 0 0 0 -1.06151,-0.62059 l -1.64561,-4.521355 a 2.7003375,2.7003375 0 0 0 0.89052,-0.629082 l 3.65581,3.067963 a 0.9656351,0.9656351 0 0 0 0.22016,1.209371 0.9656351,0.9656351 0 0 0 1.3606,-0.118909 0.9656351,0.9656351 0 0 0 -0.11884,-1.360964 0.9656351,0.9656351 0 0 0 -1.22942,-0.0068 l -3.66091,-3.071543 a 2.7003375,2.7003375 0 0 0 0.42275,-0.948348 l 4.6705,0.823531 a 0.9656351,0.9656351 0 0 0 0.79524,0.937421 0.9656351,0.9656351 0 0 0 1.11897,-0.783508 0.9656351,0.9656351 0 0 0 -0.78357,-1.118597 0.9656351,0.9656351 0 0 0 -1.06784,0.608528 l -4.67532,-0.824383 a 2.7003375,2.7003375 0 0 0 -0.0917,-1.005022 l 4.55405,-1.657448 a 0.9656351,0.9656351 0 0 0 1.15759,0.414125 0.9656351,0.9656351 0 0 0 0.57715,-1.238244 0.9656351,0.9656351 0 0 0 -1.23787,-0.577086 0.9656351,0.9656351 0 0 0 -0.62052,1.061133 l -4.55287,1.657276 a 2.7003375,2.7003375 0 0 0 -0.66045,-0.914416 l 3.10969,-3.705825 a 0.9656351,0.9656351 0 0 0 1.20937,-0.220166 0.9656351,0.9656351 0 0 0 -0.11891,-1.360596 0.9656351,0.9656351 0 0 0 -1.36059,0.118904 0.9656351,0.9656351 0 0 0 -0.007,1.229416 l -3.11607,3.713871 a 2.7003375,2.7003375 0 0 0 -0.85331,-0.380365 l 0.83007,-4.707593 a 0.9656351,0.9656351 0 0 0 0.93742,-0.795245 0.9656351,0.9656351 0 0 0 -0.7835,-1.118968 0.9656351,0.9656351 0 0 0 -1.11897,0.783511 0.9656351,0.9656351 0 0 0 0.60889,1.067903 l -0.82942,4.703881 a 2.7003375,2.7003375 0 0 0 -1.03963,0.07757 l -1.64054,-4.506685 a 0.9656351,0.9656351 0 0 0 0.41413,-1.157587 0.9656351,0.9656351 0 0 0 -1.23782,-0.577456 0.9656351,0.9656351 0 0 0 -0.57752,1.238176 0.9656351,0.9656351 0 0 0 1.06151,0.620583 l 1.63874,4.501788 a 2.7003375,2.7003375 0 0 0 -0.9142,0.644035 l -3.66995,-3.078874 a 0.9656351,0.9656351 0 0 0 -0.2201,-1.209741 0.9656351,0.9656351 0 0 0 -1.36066,0.119274 0.9656351,0.9656351 0 0 0 0.11891,1.360601 0.9656351,0.9656351 0 0 0 1.22941,0.0068 l 3.67584,3.084499 a 2.7003375,2.7003375 0 0 0 -0.39959,0.875548 l -4.67568,-0.824452 a 0.9656351,0.9656351 0 0 0 -0.79531,-0.937051 0.9656351,0.9656351 0 0 0 -1.11891,0.783138 0.9656351,0.9656351 0 0 0 0.78351,1.11897 0.9656351,0.9656351 0 0 0 1.06791,-0.608899 l 4.66456,0.822487 a 2.7003375,2.7003375 0 0 0 0.0809,1.050933 l -4.51242,1.642604 a 0.9656351,0.9656351 0 0 0 -1.15758,-0.414125 0.9656351,0.9656351 0 0 0 -0.57709,1.237874 0.9656351,0.9656351 0 0 0 1.23781,0.577458 0.9656351,0.9656351 0 0 0 0.62058,-1.061508 l 4.50949,-1.641208 a 2.7003375,2.7003375 0 0 0 0.54857,0.817803 l -3.06947,3.657836 a 0.9656351,0.9656351 0 0 0 -1.20937,0.220162 0.9656351,0.9656351 0 0 0 0.11891,1.360596 0.9656351,0.9656351 0 0 0 1.3606,-0.1189 0.9656351,0.9656351 0 0 0 0.007,-1.229419 l 3.0617,-3.648493 a 2.7003375,2.7003375 0 0 0 1.04091,0.498745 l -0.82838,4.697957 a 0.9656351,0.9656351 0 0 0 -0.93742,0.79524 0.9656351,0.9656351 0 0 0 0.78351,1.11897 z" />
    </g>
    <g
       aria-label="CANTONESE ALLIANCE "
       id="text355-3-0-6"
       style="font-size:7.45068px;clip-rule:evenodd;display:inline;stroke-width:0.139699;stroke-linecap:round;stroke-linejoin:round"
       transform="translate(-2.9461082,-8.5380499)">
      <path
         d="m 57.309927,58.95949 q -0.3429,0.51435 -0.85725,0.97155 -0.4953,0.4572 -1.143,0.8001 -0.6477,0.32385 -1.4097,0.51435 -0.74295,0.1905 -1.58115,0.1905 -1.50495,0 -2.80035,-0.5334 -1.27635,-0.5334 -2.22885,-1.46685 -0.93345,-0.9525 -1.46685,-2.2479 -0.5334,-1.2954 -0.5334,-2.83845 0,-1.54305 0.5334,-2.83845 0.5334,-1.2954 1.46685,-2.228849 0.9525,-0.9525 2.22885,-1.4859 1.2954,-0.5334 2.80035,-0.5334 1.2573,0 2.5146,0.4953 1.2573,0.4953 2.15265,1.6383 l -1.20015,0.895349 q -0.20955,-0.323849 -0.5715,-0.647699 -0.36195,-0.32385 -0.8382,-0.5715 -0.4572,-0.24765 -0.9906,-0.40005 -0.5334,-0.1524 -1.0668,-0.1524 -1.2954,0 -2.3241,0.47625 -1.0287,0.47625 -1.7526,1.276349 -0.70485,0.8001 -1.08585,1.8669 -0.381,1.04775 -0.381,2.2098 0,1.16205 0.381,2.22885 0.381,1.04775 1.08585,1.84785 0.7239,0.8001 1.7526,1.27635 1.0287,0.47625 2.3241,0.47625 0.5334,0 1.04775,-0.09525 0.5334,-0.09525 1.0287,-0.32385 0.51435,-0.2286 0.9525,-0.6096 0.4572,-0.40005 0.8382,-0.9906 z"
         style="font-size:19.05px;font-family:Avenir;-inkscape-font-specification:'Avenir, Normal'"
         id="path4171" />
      <path
         d="m 61.386599,56.29249 h 5.84835 l -2.91465,-7.086599 z m -2.00025,4.8006 h -1.6002 l 5.8674,-13.487399 h 1.3335 l 5.8674,13.487399 h -1.6002 l -1.4859,-3.5433 h -6.8961 z"
         style="font-size:19.05px;font-family:Avenir;-inkscape-font-specification:'Avenir, Normal'"
         id="path4173" />
      <path
         d="m 82.436827,59.03569 h 0.0381 V 47.605691 h 1.3716 V 61.09309 h -1.7145 l -8.0391,-11.544299 h -0.0381 V 61.09309 h -1.3716 V 47.605691 h 1.7145 z"
         style="font-size:19.05px;font-family:Avenir;-inkscape-font-specification:'Avenir, Normal'"
         id="path4175" />
      <path
         d="m 91.828473,61.09309 h -1.3716 V 48.862991 h -4.51485 v -1.2573 h 10.4013 v 1.2573 h -4.51485 z"
         style="font-size:19.05px;font-family:Avenir;-inkscape-font-specification:'Avenir, Normal'"
         id="path4177" />
      <path
         d="m 110.09742,54.34939 q 0,-1.16205 -0.381,-2.2098 -0.381,-1.0668 -1.1049,-1.8669 -0.70485,-0.800099 -1.73355,-1.276349 -1.0287,-0.47625 -2.3241,-0.47625 -1.2954,0 -2.3241,0.47625 -1.0287,0.47625 -1.7526,1.276349 -0.704854,0.8001 -1.085854,1.8669 -0.381,1.04775 -0.381,2.2098 0,1.16205 0.381,2.22885 0.381,1.04775 1.085854,1.84785 0.7239,0.8001 1.7526,1.27635 1.0287,0.47625 2.3241,0.47625 1.2954,0 2.3241,-0.47625 1.0287,-0.47625 1.73355,-1.27635 0.7239,-0.8001 1.1049,-1.84785 0.381,-1.0668 0.381,-2.22885 z m 1.4859,0 q 0,1.54305 -0.5334,2.83845 -0.5334,1.2954 -1.4859,2.2479 -0.93345,0.93345 -2.22885,1.46685 -1.27635,0.5334 -2.7813,0.5334 -1.50495,0 -2.80035,-0.5334 -1.27635,-0.5334 -2.228854,-1.46685 -0.93345,-0.9525 -1.46685,-2.2479 -0.5334,-1.2954 -0.5334,-2.83845 0,-1.54305 0.5334,-2.83845 0.5334,-1.2954 1.46685,-2.228849 0.952504,-0.9525 2.228854,-1.4859 1.2954,-0.5334 2.80035,-0.5334 1.50495,0 2.7813,0.5334 1.2954,0.5334 2.22885,1.4859 0.9525,0.933449 1.4859,2.228849 0.5334,1.2954 0.5334,2.83845 z"
         style="font-size:19.05px;font-family:Avenir;-inkscape-font-specification:'Avenir, Normal'"
         id="path4179" />
      <path
         d="m 124.0801,59.03569 h 0.0381 V 47.605691 h 1.3716 V 61.09309 h -1.7145 l -8.0391,-11.544299 h -0.0381 V 61.09309 h -1.3716 V 47.605691 h 1.7145 z"
         style="font-size:19.05px;font-family:Avenir;-inkscape-font-specification:'Avenir, Normal'"
         id="path4181" />
      <path
         d="m 130.519,59.83579 h 7.21995 v 1.2573 H 129.1474 V 47.605691 h 8.36295 v 1.2573 H 130.519 v 4.591049 h 6.53415 v 1.2573 H 130.519 Z"
         style="font-size:19.05px;font-family:Avenir;-inkscape-font-specification:'Avenir, Normal'"
         id="path4183" />
      <path
         d="m 146.82578,49.834541 q -0.89535,-1.31445 -2.60985,-1.31445 -0.5334,0 -1.04775,0.1524 -0.51435,0.13335 -0.93345,0.43815 -0.40005,0.28575 -0.6477,0.762 -0.24765,0.457199 -0.24765,1.085849 0,0.9144 0.51435,1.42875 0.51435,0.4953 1.27635,0.81915 0.762,0.32385 1.65735,0.59055 0.9144,0.24765 1.6764,0.6858 0.762,0.4191 1.27635,1.12395 0.51435,0.70485 0.51435,1.92405 0,0.9144 -0.40005,1.65735 -0.381,0.7239 -1.0287,1.2192 -0.62865,0.4953 -1.42875,0.762 -0.78105,0.2667 -1.58115,0.2667 -1.23825,0 -2.3622,-0.4572 -1.1049,-0.47625 -1.88595,-1.54305 l 1.23825,-0.89535 q 0.43815,0.74295 1.2192,1.20015 0.78105,0.43815 1.84785,0.43815 0.51435,0 1.0287,-0.1524 0.51435,-0.17145 0.9144,-0.47625 0.4191,-0.32385 0.6858,-0.78105 0.2667,-0.4572 0.2667,-1.04775 0,-0.70485 -0.3048,-1.16205 -0.28575,-0.47625 -0.78105,-0.78105 -0.47625,-0.32385 -1.1049,-0.5334 -0.6096,-0.20955 -1.27635,-0.4191 -0.6477,-0.20955 -1.27635,-0.47625 -0.6096,-0.2667 -1.1049,-0.66675 -0.47625,-0.4191 -0.78105,-1.0287 -0.28575,-0.62865 -0.28575,-1.5621 0,-0.97155 0.36195,-1.695449 0.381,-0.7239 0.9906,-1.20015 0.62865,-0.47625 1.4097,-0.70485 0.78105,-0.2286 1.6002,-0.2286 1.143,0 2.07645,0.36195 0.93345,0.36195 1.73355,1.27635 z"
         style="font-size:19.05px;font-family:Avenir;-inkscape-font-specification:'Avenir, Normal'"
         id="path4185" />
      <path
         d="m 152.40742,59.83579 h 7.21995 v 1.2573 h -8.59155 V 47.605691 h 8.36295 v 1.2573 h -6.99135 v 4.591049 h 6.53415 v 1.2573 h -6.53415 z"
         style="font-size:19.05px;font-family:Avenir;-inkscape-font-specification:'Avenir, Normal'"
         id="path4187" />
      <path
         d="m 169.39999,56.29249 h 5.84835 l -2.91465,-7.086599 z m -2.00025,4.8006 h -1.6002 l 5.8674,-13.487399 h 1.3335 l 5.8674,13.487399 h -1.6002 l -1.4859,-3.5433 h -6.8961 z"
         style="font-size:19.05px;font-family:Avenir;-inkscape-font-specification:'Avenir, Normal'"
         id="path4189" />
      <path
         d="m 182.06822,59.83579 h 6.2865 v 1.2573 h -7.6581 V 47.605691 h 1.3716 z"
         style="font-size:19.05px;font-family:Avenir;-inkscape-font-specification:'Avenir, Normal'"
         id="path4191" />
      <path
         d="m 191.59318,59.83579 h 6.2865 v 1.2573 h -7.6581 V 47.605691 h 1.3716 z"
         style="font-size:19.05px;font-family:Avenir;-inkscape-font-specification:'Avenir, Normal'"
         id="path4193" />
      <path
         d="m 201.11815,61.09309 h -1.3716 V 47.605691 h 1.3716 z"
         style="font-size:19.05px;font-family:Avenir;-inkscape-font-specification:'Avenir, Normal'"
         id="path4195" />
      <path
         d="m 206.54739,56.29249 h 5.84835 l -2.91465,-7.086599 z m -2.00025,4.8006 h -1.6002 l 5.8674,-13.487399 h 1.3335 l 5.8674,13.487399 h -1.6002 l -1.4859,-3.5433 h -6.8961 z"
         style="font-size:19.05px;font-family:Avenir;-inkscape-font-specification:'Avenir, Normal'"
         id="path4197" />
      <path
         d="m 227.59762,59.03569 h 0.0381 V 47.605691 h 1.3716 V 61.09309 h -1.7145 l -8.0391,-11.544299 h -0.0381 V 61.09309 h -1.3716 V 47.605691 h 1.7145 z"
         style="font-size:19.05px;font-family:Avenir;-inkscape-font-specification:'Avenir, Normal'"
         id="path4199" />
      <path
         d="m 243.77106,58.95949 q -0.3429,0.51435 -0.85725,0.97155 -0.4953,0.4572 -1.143,0.8001 -0.6477,0.32385 -1.4097,0.51435 -0.74295,0.1905 -1.58115,0.1905 -1.50495,0 -2.80035,-0.5334 -1.27635,-0.5334 -2.22885,-1.46685 -0.93345,-0.9525 -1.46685,-2.2479 -0.5334,-1.2954 -0.5334,-2.83845 0,-1.54305 0.5334,-2.83845 0.5334,-1.2954 1.46685,-2.228849 0.9525,-0.9525 2.22885,-1.4859 1.2954,-0.5334 2.80035,-0.5334 1.2573,0 2.5146,0.4953 1.2573,0.4953 2.15265,1.6383 l -1.20015,0.895349 q -0.20955,-0.323849 -0.5715,-0.647699 -0.36195,-0.32385 -0.8382,-0.5715 -0.4572,-0.24765 -0.9906,-0.40005 -0.5334,-0.1524 -1.0668,-0.1524 -1.2954,0 -2.3241,0.47625 -1.0287,0.47625 -1.7526,1.276349 -0.70485,0.8001 -1.08585,1.8669 -0.381,1.04775 -0.381,2.2098 0,1.16205 0.381,2.22885 0.381,1.04775 1.08585,1.84785 0.7239,0.8001 1.7526,1.27635 1.0287,0.47625 2.3241,0.47625 0.5334,0 1.04775,-0.09525 0.5334,-0.09525 1.0287,-0.32385 0.51435,-0.2286 0.9525,-0.6096 0.4572,-0.40005 0.8382,-0.9906 z"
         style="font-size:19.05px;font-family:Avenir;-inkscape-font-specification:'Avenir, Normal'"
         id="path4201" />
      <path
         d="m 247.44769,59.83579 h 7.21995 v 1.2573 h -8.59155 V 47.605691 h 8.36295 v 1.2573 h -6.99135 v 4.591049 h 6.53415 v 1.2573 h -6.53415 z"
         style="font-size:19.05px;font-family:Avenir;-inkscape-font-specification:'Avenir, Normal'"
         id="path4203" />
    </g>
    <g
       aria-label="粵語聯盟"
       id="text409-8-9-6"
       style="font-size:13.5467px;-inkscape-font-specification:'sans-serif, Normal';clip-rule:evenodd;display:inline;fill:#800000;stroke-width:0.114299;stroke-linecap:round;stroke-linejoin:round"
       transform="translate(-2.9461082,-8.5380499)">
      <path
         d="m 215.45398,65.578086 c -1.02658,0.253999 -2.31774,0.380999 -3.87349,0.391582 l 0.14817,0.444499 c 0.59266,0 1.14299,-0.02117 1.65099,-0.05292 v 0.825498 h -0.53975 c -0.12699,-0.264583 -0.26458,-0.497415 -0.41274,-0.709081 l -0.4445,0.148166 c 0.11641,0.179916 0.22225,0.370415 0.3175,0.560915 h -0.8255 v 0.476248 h 1.57691 c -0.37041,0.285749 -0.91016,0.529165 -1.61924,0.719664 l 0.27516,0.455082 c 0.70908,-0.264582 1.27,-0.592664 1.67216,-0.973663 v 1.09008 h -2.47649 V 65.49342 h 5.59857 v 3.460739 h -2.51883 v -1.291163 h 1.98966 v -0.476248 h -0.92075 c 0.16934,-0.232833 0.3175,-0.486832 0.4445,-0.772581 l -0.49741,-0.137583 c -0.14817,0.349249 -0.3175,0.656164 -0.508,0.910164 h -0.508 v -0.878414 c 0.65617,-0.0635 1.22766,-0.15875 1.72508,-0.285749 z m -5.2599,-0.687914 v 4.667235 h 7.01673 v -4.667235 h -3.65124 c 0.10583,-0.169333 0.17992,-0.349249 0.24342,-0.560915 l -0.70909,-0.09525 c -0.0635,0.222249 -0.14816,0.444499 -0.27516,0.656165 z m -1.06891,5.249316 v 0.656165 h 2.00024 l -0.5715,1.386412 h 5.69382 c -0.0741,0.571498 -0.17992,0.899581 -0.3175,0.99483 -0.13758,0.105833 -0.40217,0.15875 -0.78317,0.15875 -0.37041,0 -0.76199,-0.02117 -1.18533,-0.0635 l 0.17992,0.656164 c 0.381,0.02117 0.70908,0.03175 1.00541,0.04233 0.71967,0 1.2065,-0.116417 1.43933,-0.349249 0.21167,-0.232833 0.37042,-0.920747 0.47625,-2.074327 h -5.46098 l 0.32808,-0.751414 h 6.39231 v -0.656165 z m 5.34456,-2.317742 -0.24341,0.359832 c 0.46566,0.148166 0.91016,0.370415 1.34408,0.645581 l 0.27516,-0.412749 c -0.42333,-0.232832 -0.87841,-0.433915 -1.37583,-0.592664 z"
         style="font-size:10.5833px;font-family:'PingFang TC';-inkscape-font-specification:'PingFang TC, Normal'"
         id="path4206" />
      <path
         d="m 220.56569,73.335645 h 1.44992 v 0.486831 h 0.68791 v -3.566571 h -2.84691 v 3.725321 h 0.70908 z m 1.44992,-0.698498 h -1.44992 v -1.703911 h 1.44992 z m -2.4765,-6.995561 v 0.698498 h 3.40783 v -0.698498 h -1.51342 l 0.381,-0.148166 c -0.13758,-0.380999 -0.33866,-0.804331 -0.60325,-1.269996 l -0.71966,0.211666 c 0.254,0.380998 0.47625,0.783164 0.65617,1.206496 z m 0.39159,1.534578 v 0.666748 h 2.67757 v -0.666748 z m 0,1.492246 v 0.677331 h 2.67757 V 68.66841 Z m 3.4184,-3.968738 v 0.687915 h 1.98966 l -0.23283,1.195913 h -1.40758 v 0.666747 h 1.27 l -0.27517,1.418163 h -1.41816 v 0.698497 h 5.81023 V 68.66841 h -0.80433 V 66.5835 h -2.46591 l 0.23283,-1.195913 h 2.74108 v -0.687915 z m 2.05316,3.968738 0.27517,-1.418163 h 1.89441 v 1.418163 z m 3.03741,1.693327 h -4.6249 v 3.651239 h 0.71966 v -0.486832 h 3.19616 v 0.486832 h 0.70908 z m -3.90524,2.476493 v -1.799161 h 3.19616 v 1.799161 z"
         style="font-size:10.5833px;font-family:'PingFang TC';-inkscape-font-specification:'PingFang TC, Normal'"
         id="path4208" />
      <path
         d="m 233.87946,69.59974 v 2.402409 h 1.397 c -0.0529,0.127 -0.11642,0.243416 -0.17992,0.359832 -0.28575,0.402166 -0.78316,0.719665 -1.48166,0.96308 l 0.381,0.603248 c 0.762,-0.264582 1.32291,-0.634998 1.66158,-1.121829 0.33866,-0.518582 0.51858,-1.206496 0.53975,-2.063744 v -1.375829 h -0.68792 v 1.375829 c 0,0.211666 -0.0212,0.423332 -0.0529,0.624415 h -0.91017 V 69.59974 Z m 4.76249,0.02117 v 1.841494 h -0.93133 v -2.106077 h -0.6985 v 4.688402 h 0.6985 v -1.947327 h 1.59808 V 69.62091 Z m -2.63524,-2.455326 -0.51858,0.169333 c 0.0847,0.264582 0.16933,0.550331 0.254,0.857247 l -1.27,0.222249 c 0.52916,-0.486831 1.21708,-1.428745 2.05316,-2.825741 l -0.58208,-0.232832 c -0.17992,0.296332 -0.35983,0.592665 -0.52917,0.878414 -0.35983,0.04233 -0.70908,0.07408 -1.06891,0.116416 0.35983,-0.486832 0.71966,-1.111247 1.06891,-1.873244 l -0.62441,-0.243416 c -0.28575,0.719664 -0.62442,1.365246 -1.00542,1.915577 -0.0847,0.116417 -0.16933,0.201083 -0.26458,0.243416 l 0.15875,0.560915 1.35466,-0.127 c -0.61383,0.910164 -1.12183,1.471079 -1.51341,1.693328 l 0.14817,0.550332 c 0.67733,-0.08467 1.41816,-0.201083 2.22249,-0.349249 0.0318,0.148166 0.0635,0.317499 0.10583,0.486832 l 0.53975,-0.137583 c -0.14816,-0.719664 -0.32808,-1.354662 -0.52916,-1.904994 z m 3.15382,-0.148166 -0.51858,0.158749 c 0.10583,0.306916 0.20108,0.624415 0.28575,0.941914 -0.48683,0.07408 -0.91017,0.137583 -1.28058,0.190499 0.46566,-0.465665 1.06891,-1.386412 1.82033,-2.783407 l -0.58208,-0.232833 c -0.16934,0.306916 -0.3175,0.603248 -0.46567,0.878414 -0.34925,0.04233 -0.6985,0.07408 -1.03716,0.09525 0.29633,-0.433916 0.61383,-1.005414 0.93133,-1.725078 l -0.62442,-0.243416 c -0.24341,0.677331 -0.52916,1.269996 -0.84666,1.788577 -0.0847,0.116417 -0.16933,0.201083 -0.26458,0.243416 l 0.15875,0.550332 1.34407,-0.127 c -0.52916,0.867831 -0.96308,1.418162 -1.30174,1.629828 l 0.13758,0.550332 c 0.65617,-0.07408 1.36525,-0.169333 2.14841,-0.275166 0.0423,0.1905 0.0952,0.380999 0.13758,0.582082 l 0.53975,-0.137583 c -0.16933,-0.783164 -0.37041,-1.481662 -0.58208,-2.08491 z m -9.10164,-2.285993 v 0.698498 h 0.45509 v 6.498146 c -0.16934,0.04233 -0.34925,0.07408 -0.51859,0.116416 l 0.17992,0.709081 c 0.78316,-0.190499 1.51341,-0.433915 2.21191,-0.719664 v 2.010827 h 0.6985 V 65.42992 h 0.60325 v -0.698498 z m 1.15358,7.006144 v -1.820327 h 1.17475 v 1.407579 c -0.381,0.158749 -0.77258,0.296332 -1.17475,0.412748 z m 0,-2.497658 v -1.566329 h 1.17475 v 1.566329 z m 0,-2.24366 V 65.42992 h 1.17475 v 1.566328 z"
         style="font-size:10.5833px;font-family:'PingFang TC';-inkscape-font-specification:'PingFang TC, Normal'"
         id="path4210" />
      <path
         d="m 241.4465,64.667922 v 4.635486 h 3.07974 v -4.635486 z m 2.37066,3.968738 H 242.145 v -1.375829 h 1.67216 z M 242.145,66.625833 V 65.33467 h 1.67216 v 1.291163 z m 4.07457,0.09525 h 2.37066 v 0.899581 h -2.37066 z m 2.37066,-0.634998 h -2.37066 v -0.910163 h 2.37066 z m -2.43416,2.158994 h 2.43416 v 0.740831 c 0,0.296332 -0.15875,0.444498 -0.46566,0.444498 -0.21167,0 -0.43392,-0.01058 -0.67733,-0.03175 l 0.17991,0.677331 h 0.71967 c 0.65616,0 0.98424,-0.285749 0.98424,-0.83608 v -4.720152 h -3.82057 v 3.07974 c -0.0212,0.867831 -0.3175,1.576912 -0.89958,2.14841 l 0.55033,0.497415 c 0.53975,-0.539748 0.86783,-1.206496 0.99483,-2.000243 z m 2.89983,2.243659 h -7.21781 v 2.529409 h -1.18533 v 0.687914 h 9.57788 v -0.687914 h -1.17474 z m -6.48757,2.529409 v -1.830911 h 1.40758 v 1.830911 z m 2.14841,0 v -1.830911 h 1.41817 v 1.830911 z m 2.159,0 v -1.830911 h 1.44991 v 1.830911 z"
         style="font-size:10.5833px;font-family:'PingFang TC';-inkscape-font-specification:'PingFang TC, Normal'"
         id="path4212" />
    </g>
  </g>
</svg>
